<svg width="121" height="124" viewBox="0 0 121 124" fill="none" xmlns="http://www.w3.org/2000/svg">
<path d="M8.10639 71.2782L1.95385 65.1342C-0.651283 62.5328 -0.651283 58.3261 1.95385 55.7523L55.8025 1.95112C58.4076 -0.650374 62.6201 -0.650374 65.1975 1.95112L119.046 55.7246C121.651 58.3261 121.651 62.5328 119.046 65.1066L112.894 71.2505C110.261 73.8797 105.965 73.8243 103.388 71.1398L71.5995 37.8185V117.358C71.5995 121.039 68.6341 124 64.9481 124H56.0796C52.3936 124 49.4282 121.039 49.4282 117.358V37.8185L17.6123 71.1675C15.0349 73.8797 10.7392 73.935 8.10639 71.2782Z" fill="#E1C599"/>
<path d="M56.1553 2.30371C58.491 -0.0284111 62.2202 -0.0977796 64.6152 2.08496L64.8428 2.30273L64.8447 2.30469L118.692 56.0781C121.028 58.4101 121.098 62.132 118.913 64.5234L118.694 64.751L118.692 64.7529L112.54 70.8965C110.182 73.2508 106.38 73.2779 103.977 71.0195L103.748 70.7939L71.9609 37.4736L71.0996 36.5703V117.357C71.0996 120.761 68.3587 123.5 64.9482 123.5H56.0801C52.6696 123.5 49.9277 120.761 49.9277 117.357V36.5703L49.0664 37.4736L17.251 70.8223L17.25 70.8232C14.9404 73.2536 11.1417 73.3762 8.69434 71.1494L8.46191 70.9258L8.45996 70.9248L2.30762 64.7803C-0.0277012 62.4482 -0.0985052 58.7264 2.08691 56.335L2.30566 56.1084L2.30762 56.1064L56.1562 2.30469L56.1553 2.30371Z" stroke="black" stroke-opacity="0.29"/>
</svg>
