<svg width="18" height="17" viewBox="0 0 18 17" fill="none" xmlns="http://www.w3.org/2000/svg">
<path d="M1.12721 6.62779C1.90061 5.88893 2.20971 6.39449 3.09906 5.76526C4.26065 4.94341 3.51702 3.27451 4.48955 2.27986C5.33979 1.41028 6.76572 1.01175 7.93905 1.89165C8.33905 2.19161 8.60863 3.00761 9.23991 2.84029C9.72336 2.71215 10.1774 2.09254 10.6279 1.89165C12.062 1.25217 12.6894 1.56838 13.765 2.59608C14.8405 3.62377 14.4268 4.95294 14.8405 5.76526C15.2128 6.49638 15.9142 6.01952 16.4538 6.62779C17.1901 7.45767 17.3949 8.28791 17.0812 9.39465C16.7675 10.5014 16.3642 10.9687 15.6472 11.8453C14.4594 13.2974 15.4687 13.7585 14.2131 15.1655C13.7668 15.6656 12.137 15.9437 11.4346 15.798C9.91089 15.4818 9.55238 15.4818 7.31164 15.4818C6.71596 15.4818 4.89165 16.0351 3.45758 15.1655C2.02351 14.2959 3.19544 12.6595 1.84424 11.45C1.30647 10.9687 0.679066 9.39465 0.679066 9.39465C0.679066 9.39465 0.0587522 7.64854 1.12721 6.62779Z" fill="white" stroke="#CED4DA"/>
<path d="M11.1934 14.0586C12.5062 14.316 13.8026 13.3862 13.502 12.0827V12.0827C13.3181 11.2852 12.3779 10.5453 11.9335 9.91399V9.91399C11.2366 8.92406 10.4097 7.98737 9.20207 7.90237C9.11456 7.89621 9.0268 7.89296 8.93891 7.89265C8.83551 7.89228 8.73228 7.89598 8.62939 7.90371C7.45385 7.99195 6.7587 8.95387 6.0747 9.91399V9.91399C5.62721 10.5421 4.54321 11.2541 4.3554 12.0502V12.0502C4.04808 13.353 5.33977 14.2906 6.65504 14.0423L8.20415 13.7498C8.6803 13.6599 9.16921 13.6616 9.64471 13.7549L11.1934 14.0586Z" fill="#CED4DA"/>
<path d="M4.89161 8.84127C4.89161 9.47937 4.09576 10.1183 3.35398 10.1183C2.6122 10.1183 1.93384 9.47937 1.93384 8.84127C1.93384 8.20316 2.6122 7.49736 3.35398 7.49736C4.09576 7.49736 4.89161 8.20316 4.89161 8.84127Z" fill="#CED4DA"/>
<path d="M4.89161 8.84127C4.89161 9.47937 4.09576 10.1183 3.35398 10.1183C2.6122 10.1183 1.93384 9.47937 1.93384 8.84127C1.93384 8.20316 2.6122 7.49736 3.35398 7.49736C4.09576 7.49736 4.89161 8.20316 4.89161 8.84127Z" fill="#CED4DA"/>
<path d="M8.29753 5.12576C8.29753 6.70683 7.17258 6.94399 6.4308 6.94399C5.68902 6.94399 4.72255 6.46967 4.72255 5.28387C4.72255 4.44469 5.25013 3.46565 6.4308 3.30754C7.5805 3.30754 8.2079 4.20753 8.29753 5.12576Z" fill="#CED4DA"/>
<path d="M8.29753 5.12576C8.29753 6.70683 7.17258 6.94399 6.4308 6.94399C5.68902 6.94399 4.72255 6.46967 4.72255 5.28387C4.72255 4.44469 5.25013 3.46565 6.4308 3.30754C7.5805 3.30754 8.2079 4.20753 8.29753 5.12576Z" fill="#CED4DA"/>
<path d="M12.9583 8.84127C12.9583 9.47937 13.7542 10.1183 14.4959 10.1183C15.2377 10.1183 15.9161 9.47937 15.9161 8.84127C15.9161 8.20316 15.2377 7.49736 14.4959 7.49736C13.7542 7.49736 12.9583 8.20316 12.9583 8.84127Z" fill="#CED4DA"/>
<path d="M12.9583 8.84127C12.9583 9.47937 13.7542 10.1183 14.4959 10.1183C15.2377 10.1183 15.9161 9.47937 15.9161 8.84127C15.9161 8.20316 15.2377 7.49736 14.4959 7.49736C13.7542 7.49736 12.9583 8.20316 12.9583 8.84127Z" fill="#CED4DA"/>
<path d="M9.55238 5.12576C9.55238 6.70683 10.6773 6.94399 11.4191 6.94399C12.1609 6.94399 13.1274 6.46967 13.1274 5.28387C13.1274 4.44469 12.5998 3.46565 11.4191 3.30754C10.2694 3.30754 9.64201 4.20753 9.55238 5.12576Z" fill="#CED4DA"/>
<path d="M9.55238 5.12576C9.55238 6.70683 10.6773 6.94399 11.4191 6.94399C12.1609 6.94399 13.1274 6.46967 13.1274 5.28387C13.1274 4.44469 12.5998 3.46565 11.4191 3.30754C10.2694 3.30754 9.64201 4.20753 9.55238 5.12576Z" fill="#CED4DA"/>
</svg>
