<svg width="19" height="16" viewBox="0 0 19 16" fill="none" xmlns="http://www.w3.org/2000/svg">
<path d="M1.62721 6.29977C2.40061 5.56091 2.70971 6.06647 3.59906 5.43724C4.76065 4.61539 4.01702 2.94649 4.98955 1.95184C5.83979 1.08226 7.26572 0.683735 8.43905 1.56363C8.83905 1.8636 9.10863 2.67959 9.73991 2.51227C10.2234 2.38413 10.6774 1.76452 11.1279 1.56363C12.562 0.924154 13.1894 1.24037 14.265 2.26806C15.3405 3.29575 14.9268 4.62493 15.3405 5.43724C15.7128 6.16837 16.4142 5.69151 16.9538 6.29977C17.6901 7.12966 17.8949 7.95989 17.5812 9.06664C17.2675 10.1734 16.8642 10.6406 16.1472 11.5173C14.9594 12.9694 15.9687 13.4305 14.7131 14.8375C14.2668 15.3376 12.637 15.6157 11.9346 15.4699C10.4109 15.1537 10.0524 15.1537 7.81164 15.1537C7.21596 15.1537 5.39165 15.7071 3.95758 14.8375C2.52351 13.9679 3.69544 12.3315 2.34424 11.122C1.80647 10.6406 1.17907 9.06664 1.17907 9.06664C1.17907 9.06664 0.558752 7.32052 1.62721 6.29977Z" fill="white" stroke="#A69C9C"/>
<path d="M11.6935 13.7305C13.0062 13.988 14.3027 13.0582 14.0021 11.7547V11.7547C13.8182 10.9572 12.878 10.2173 12.4335 9.58599V9.58599C11.7367 8.59606 10.9098 7.65936 9.70213 7.57437C9.61462 7.56821 9.52687 7.56496 9.43897 7.56465C9.33557 7.56428 9.23234 7.56798 9.12945 7.5757C7.95391 7.66395 7.25876 8.62587 6.57477 9.58599V9.58599C6.12727 10.2141 5.04327 10.9261 4.85546 11.7222V11.7222C4.54814 13.025 5.83983 13.9626 7.1551 13.7143L8.70421 13.4218C9.18036 13.3319 9.66927 13.3336 10.1448 13.4269L11.6935 13.7305Z" fill="#F8A07F"/>
<path d="M5.39161 8.51325C5.39161 9.15135 4.59576 9.79026 3.85398 9.79026C3.1122 9.79026 2.43384 9.15135 2.43384 8.51325C2.43384 7.87514 3.1122 7.16934 3.85398 7.16934C4.59576 7.16934 5.39161 7.87514 5.39161 8.51325Z" fill="#F8A07F"/>
<path d="M5.39161 8.51325C5.39161 9.15135 4.59576 9.79026 3.85398 9.79026C3.1122 9.79026 2.43384 9.15135 2.43384 8.51325C2.43384 7.87514 3.1122 7.16934 3.85398 7.16934C4.59576 7.16934 5.39161 7.87514 5.39161 8.51325Z" fill="#F8A07F"/>
<path d="M8.79753 4.79775C8.79753 6.37881 7.67258 6.61597 6.9308 6.61597C6.18902 6.61597 5.22255 6.14165 5.22255 4.95585C5.22255 4.11667 5.75013 3.13763 6.9308 2.97952C8.0805 2.97952 8.7079 3.87951 8.79753 4.79775Z" fill="#F8A07F"/>
<path d="M8.79753 4.79775C8.79753 6.37881 7.67258 6.61597 6.9308 6.61597C6.18902 6.61597 5.22255 6.14165 5.22255 4.95585C5.22255 4.11667 5.75013 3.13763 6.9308 2.97952C8.0805 2.97952 8.7079 3.87951 8.79753 4.79775Z" fill="#F8A07F"/>
<path d="M13.4583 8.51325C13.4583 9.15135 14.2542 9.79026 14.9959 9.79026C15.7377 9.79026 16.4161 9.15135 16.4161 8.51325C16.4161 7.87514 15.7377 7.16934 14.9959 7.16934C14.2542 7.16934 13.4583 7.87514 13.4583 8.51325Z" fill="#F8A07F"/>
<path d="M13.4583 8.51325C13.4583 9.15135 14.2542 9.79026 14.9959 9.79026C15.7377 9.79026 16.4161 9.15135 16.4161 8.51325C16.4161 7.87514 15.7377 7.16934 14.9959 7.16934C14.2542 7.16934 13.4583 7.87514 13.4583 8.51325Z" fill="#F8A07F"/>
<path d="M10.0524 4.79775C10.0524 6.37881 11.1773 6.61597 11.9191 6.61597C12.6609 6.61597 13.6274 6.14165 13.6274 4.95585C13.6274 4.11667 13.0998 3.13763 11.9191 2.97952C10.7694 2.97952 10.142 3.87951 10.0524 4.79775Z" fill="#F8A07F"/>
<path d="M10.0524 4.79775C10.0524 6.37881 11.1773 6.61597 11.9191 6.61597C12.6609 6.61597 13.6274 6.14165 13.6274 4.95585C13.6274 4.11667 13.0998 3.13763 11.9191 2.97952C10.7694 2.97952 10.142 3.87951 10.0524 4.79775Z" fill="#F8A07F"/>
</svg>
