<svg width="44" height="42" viewBox="0 0 44 42" fill="none" xmlns="http://www.w3.org/2000/svg">
<path d="M21.5244 1.08203C21.6648 0.650115 22.246 0.62295 22.4414 1.00098L22.4756 1.08203L26.9131 14.7383C27.114 15.3562 27.6901 15.7744 28.3398 15.7744H42.6992C43.1832 15.7748 43.3839 16.3941 42.9922 16.6787L31.376 25.1191C30.8832 25.4772 30.6586 26.0947 30.7979 26.6797L30.8311 26.7959L35.2676 40.4531C35.4171 40.9137 34.8908 41.2962 34.499 41.0117L22.8818 32.5713C22.3561 32.1894 21.6439 32.1894 21.1182 32.5713L9.50098 41.0117C9.10916 41.2962 8.58286 40.9137 8.73242 40.4531L13.1689 26.7959C13.357 26.2167 13.1761 25.5857 12.7197 25.1943L12.624 25.1191L1.00781 16.6787C0.615958 16.394 0.817393 15.7744 1.30176 15.7744H15.6602C16.2694 15.7744 16.8138 15.4067 17.0449 14.8516L17.0869 14.7383L21.5244 1.08203Z" stroke="#CED4DA"/>
</svg>
